HIERARCHY
ROOT Hips
{
	OFFSET -0.179506 -22.333345 2.821913
	CHANNELS 6 Xposition Yposition Zposition Zrotation Yrotation Xrotation 
	JOINT LeftUpLeg
	{
		OFFSET 6.951974 -9.140623 -0.681533
		CHANNELS 3 Zrotation Yrotation Xrotation
		JOINT LeftLeg
		{
			OFFSET 3.427654 -37.519855 -0.449580
			CHANNELS 3 Zrotation Yrotation Xrotation
			JOINT LeftFoot
			{
				OFFSET -1.359570 -39.796059 -4.369333
				CHANNELS 3 Zrotation Yrotation Xrotation
				JOINT LeftToe
				{
					OFFSET 2.635814 -5.579078 11.928840
					CHANNELS 3 Zrotation Yrotation Xrotation
					End Site
					{
						OFFSET 0.000000 0.000000 0.000000
					}
				}
			}
		}
	}
	JOINT RightUpLeg
	{
		OFFSET -6.767048 -9.052170 -0.431982
		CHANNELS 3 Zrotation Yrotation Xrotation
		JOINT RightLeg
		{
			OFFSET -3.829005 -38.256897 -0.885003
			CHANNELS 3 Zrotation Yrotation Xrotation
			JOINT RightFoot
			{
				OFFSET 1.577377 -39.841461 -4.231180
				CHANNELS 3 Zrotation Yrotation Xrotation
				JOINT RightToe
				{
					OFFSET -2.537174 -4.814398 12.334795
					CHANNELS 3 Zrotation Yrotation Xrotation
					End Site
					{
						OFFSET 0.000000 0.000000 0.000000
					}
				}
			}
		}
	}
	JOINT Spine
	{
		OFFSET -0.253288 10.896323 -2.669631
		CHANNELS 3 Zrotation Yrotation Xrotation
		JOINT Spine1
		{
			OFFSET 0.548704 13.518043 0.109247
			CHANNELS 3 Zrotation Yrotation Xrotation
			JOINT Spine2
			{
				OFFSET 0.145701 5.292222 2.542457
				CHANNELS 3 Zrotation Yrotation Xrotation
				JOINT Neck
				{
					OFFSET -0.277840 21.387037 -4.285703
					CHANNELS 3 Zrotation Yrotation Xrotation
					JOINT Head
					{
						OFFSET 0.515184 6.496960 5.134897
						CHANNELS 3 Zrotation Yrotation Xrotation
						End Site
						{
							OFFSET 0.000000 0.000000 0.000000
						}
					}
				}
				JOINT LeftShoulder
				{
					OFFSET 7.884473 12.174932 -3.408961
					CHANNELS 3 Zrotation Yrotation Xrotation
					JOINT LeftArm
					{
						OFFSET 9.097692 3.046888 -0.886815
						CHANNELS 3 Zrotation Yrotation Xrotation
						JOINT LeftForeArm
						{
							OFFSET 25.961220 -1.277207 -2.745643
							CHANNELS 3 Zrotation Yrotation Xrotation
							JOINT LeftHand
							{
								OFFSET 24.923361 0.898606 -0.117091
								CHANNELS 3 Zrotation Yrotation Xrotation
								End Site
								{
									OFFSET 0.000000 0.000000 0.000000
								}
							}
						}
					}
				}
				JOINT RightShoulder
				{
					OFFSET -8.175920 11.883285 -3.861528
					CHANNELS 3 Zrotation Yrotation Xrotation
					JOINT RightArm
					{
						OFFSET -9.601238 3.255117 -0.914307
						CHANNELS 3 Zrotation Yrotation Xrotation
						JOINT RightForeArm
						{
							OFFSET -25.374195 -1.332924 -2.140099
							CHANNELS 3 Zrotation Yrotation Xrotation
							JOINT RightHand
							{
								OFFSET -25.529810 0.777228 -0.555919
								CHANNELS 3 Zrotation Yrotation Xrotation
								End Site
								{
									OFFSET 0.000000 0.000000 0.000000
								}
							}
						}
					}
				}
			}
		}
	}
}
MOTION
Frames: 15
Frame Time: 0.033333
263.941193 -245.563019 91.332642 -153.876861 0.271029 91.855718 1.299064 3.955779 -0.846332 0.475645 1.118347 1.661714 1.766272 17.808880 -14.451653 nan nan nan -1.684501 -0.003625 -4.808567 2.923306 1.462549 6.971312 4.749682 -4.244537 -13.231916 nan nan nan -2.104983 2.124864 2.171598 4.145635 -3.648241 7.543573 0.930591 -1.236462 -3.471970 -5.825345 3.786399 0.649096 4.558407 5.896916 -9.181613 -26.953408 1.295092 0.863224 -57.464674 -2.639976 23.446063 -2.972912 -35.709457 6.695758 31.560915 -21.555284 -29.142166 22.688089 -5.446824 -2.431643 47.795810 -9.681453 9.050644 -50.345561 79.294433 -46.330305 -49.893737 24.291996 -32.843135 
263.715363 -245.272034 91.086075 -152.927803 -0.054188 91.944922 1.043158 3.850518 -0.836310 0.292475 0.950020 1.517025 1.967308 17.833066 -14.261421 nan nan nan -2.084840 -0.158104 -3.965854 3.026663 1.718416 5.934010 4.983160 -5.212695 -13.251435 nan nan nan -2.379248 1.893984 0.655119 4.338365 -4.303207 8.513545 0.602689 -1.357210 -3.099818 -5.871870 4.500280 0.149517 4.699338 6.055902 -8.215787 -23.700937 1.101006 1.288018 -57.107388 -4.125566 25.253142 -3.760594 -36.532594 16.103789 20.404755 -19.474525 -25.311426 21.717229 -5.978572 -2.391950 49.633498 -9.134627 10.089219 -57.623426 77.662919 -51.322898 -44.568322 21.968194 -33.385638 
262.860077 -244.562958 91.757195 -149.782141 0.524939 87.821811 1.867639 4.476171 4.487888 0.343181 -1.083621 0.407760 0.918977 16.853651 -14.341033 nan nan nan -1.385963 -1.570452 3.636016 2.803069 1.340188 2.295347 5.345348 -5.938656 -13.031495 nan nan nan -1.809399 1.299429 1.398832 4.706376 -5.978068 13.031101 0.591906 -1.932176 -3.697328 -6.256117 4.843772 0.566713 4.454939 6.074747 -9.996248 -24.793566 -0.130845 2.401012 -57.253241 -6.037996 24.782974 -2.724803 -35.609768 14.040835 21.698560 -19.597933 -26.202296 22.477725 -4.781108 -2.096364 49.127546 -8.831484 9.660380 -58.861327 76.507058 -52.280518 -47.057315 23.158108 -32.671569 
262.710052 -244.408493 91.912773 -149.342653 0.541279 86.977022 1.953524 4.298642 5.921541 0.354808 -1.928297 -0.329180 0.794894 17.102991 -14.259155 nan nan nan -1.091389 -0.741272 4.431442 2.749859 0.518500 2.930524 5.006396 -6.287433 -14.152503 nan nan nan -2.103781 1.033647 1.810964 4.783217 -6.013703 13.312623 0.712569 -1.990134 -3.547129 -6.270217 5.288975 0.309889 4.504656 6.319258 -10.157985 -24.568361 -0.194001 2.496549 -58.058043 -6.587148 24.711751 -2.804964 -35.302691 13.643888 24.000067 -19.841451 -27.917919 22.584178 -4.607644 -2.092189 49.220565 -8.538700 9.624324 -57.233243 76.301029 -50.340813 -48.638690 23.661415 -32.478472 
262.653992 -244.334076 92.018616 -149.420160 0.575093 86.776895 2.034222 4.430106 6.312358 0.334729 -1.715033 -0.442822 0.806642 16.905298 -14.330605 nan nan nan -0.918793 -0.693729 4.718152 2.699008 0.552286 2.970610 4.884819 -6.069197 -14.233638 nan nan nan -2.139381 1.059334 1.582918 4.720491 -6.030547 13.943762 0.737360 -2.061339 -3.848261 -6.158683 6.052362 0.326334 4.301054 6.387380 -10.358306 -24.591986 -0.198302 2.798285 -57.323923 -6.117385 24.228360 -2.844487 -37.326908 13.671086 21.823785 -20.585006 -26.184904 22.665825 -4.259943 -1.692177 49.451254 -8.459958 9.603936 -59.811104 76.080854 -53.402469 -47.141976 23.889881 -33.202877 
262.592346 -244.168777 92.138695 -149.536739 0.736698 86.423143 2.699452 6.060531 6.459909 -0.568654 0.916889 0.029607 -0.128282 15.032501 -14.735256 nan nan nan -0.539085 -0.356965 5.308104 2.524455 -0.258953 2.853778 4.533440 -5.256855 -14.491370 nan nan nan -2.074986 1.170667 1.017026 4.862962 -5.955649 17.220571 0.694337 -2.533016 -6.387644 -5.587829 8.263447 0.699930 4.004101 5.332980 -11.134276 -24.556361 1.122748 2.608550 -55.804134 -6.193705 24.116609 -0.616214 -40.610835 16.464685 7.160087 -20.025270 -13.440426 23.316044 -4.441855 -0.638544 49.214089 -6.273609 9.668248 -56.307993 73.814623 -52.821800 -45.185039 26.881300 -31.673657 
262.287476 -244.115143 92.172935 -149.164034 0.704924 86.154783 2.478825 6.484113 6.882906 -0.226396 0.880368 -0.062251 -0.489552 14.317332 -14.840670 nan nan nan -0.811341 -0.694932 5.795996 2.766724 -0.426933 2.742519 4.363755 -4.898337 -14.973078 nan nan nan -1.701202 1.156196 1.080083 4.692610 -6.194322 17.665227 0.565106 -2.744585 -6.783113 -5.793447 8.775811 0.786090 4.170003 5.551980 -11.416358 -24.604535 1.311680 2.301337 -55.844327 -6.279721 24.225575 -0.877843 -41.428480 16.450731 6.558282 -20.224151 -14.609873 23.113927 -4.262334 -0.552009 49.259260 -6.005690 9.805568 -54.172872 74.296029 -53.467221 -46.636606 27.984473 -35.456511 
262.378265 -243.801941 92.392357 -150.016687 0.641156 84.873404 2.854523 6.639465 9.072267 -0.499975 1.769358 -0.928000 -1.024955 13.900726 -15.027973 nan nan nan -0.310499 0.306848 7.309227 2.285643 -0.923274 2.639842 4.244404 -4.284025 -15.288488 nan nan nan -2.486226 1.474893 2.049325 4.809517 -5.575811 18.574589 1.243901 -3.033014 -7.101924 -4.404017 11.315123 0.861649 2.752227 4.037000 -12.100863 -23.193522 1.639474 0.641232 -63.838691 -4.620068 22.746698 10.082738 -39.089688 10.328686 0.803477 -22.265254 -11.273562 22.868355 -3.504625 -0.813966 50.273464 -6.129741 10.897408 -56.946720 72.362442 -55.943416 -44.686060 29.970562 -36.509142 
262.356934 -243.728638 92.469398 -150.139550 0.649089 84.862088 2.862507 6.621139 9.203235 -0.508095 1.909483 -0.984164 -0.869018 13.894733 -15.198638 nan nan nan -0.224556 0.452510 7.220560 2.283745 -0.951477 2.884165 3.993983 -4.137253 -15.422558 nan nan nan -2.543118 1.495427 1.910063 4.822460 -5.543748 18.963011 1.222140 -2.991107 -7.346269 -4.238597 11.784054 0.815980 2.608577 4.091284 -12.165251 -23.046550 1.707155 0.609062 -63.828539 -4.441699 22.739409 10.106967 -40.786982 10.104469 -0.014356 -22.540654 -11.481413 22.840108 -3.461869 -0.810491 50.559300 -6.074890 10.975654 -57.410622 72.144909 -56.606218 -43.955872 30.234740 -36.558839 
262.329193 -243.634979 92.489906 -150.162404 0.686433 85.132741 2.875689 6.772314 8.951818 -0.417909 1.871781 -0.915748 -0.927877 13.800708 -15.387196 nan nan nan -0.174179 0.391212 6.795526 2.312822 -0.865617 3.195881 3.879723 -3.926512 -15.647121 nan nan nan -2.742622 1.572341 1.689183 4.976091 -5.570296 19.095982 1.432211 -2.937963 -7.797734 -4.807107 11.233831 0.852175 3.025660 5.088560 -11.929421 -23.093086 1.907712 0.953889 -63.594264 -4.410013 22.052147 9.162428 -42.619154 11.336437 -0.149123 -23.642183 -11.783248 22.734177 -3.941495 -0.603552 48.960543 -3.327014 9.094966 -46.573174 71.454165 -43.562839 -46.778731 33.448402 -36.649127 
262.315491 -243.577225 92.478638 -150.097102 0.614932 85.023807 2.647448 5.660056 9.417120 -0.565464 1.772419 -1.479575 0.756021 15.035738 -14.813219 nan nan nan -0.354087 0.174790 6.935625 2.491540 -0.304237 3.251907 3.710483 -4.227234 -15.399328 nan nan nan -2.451176 1.145088 1.574616 4.460418 -5.775091 18.578968 0.784640 -2.321619 -6.643649 -3.628048 11.571966 0.713376 2.055553 5.060611 -11.933112 -22.814727 1.545152 2.250032 -63.535403 -5.347737 21.685108 11.596419 -45.228940 9.022353 -7.021470 -21.952646 -8.654857 23.166926 -4.613139 -0.263016 51.160239 -6.307811 8.790313 -70.232399 68.608203 -57.272815 -24.099441 27.303413 -17.842691 
262.294830 -243.489120 92.473526 -150.073801 0.538981 85.250408 2.524404 5.393937 9.233509 -0.546585 2.163922 -1.530954 1.039837 14.912648 -14.802259 nan nan nan -0.418280 0.364928 6.672074 2.548191 -0.665016 3.422935 3.534335 -3.997078 -15.522037 nan nan nan -2.708169 1.280123 1.942029 4.643231 -5.614503 18.629397 1.001112 -2.189579 -7.815135 -3.466655 11.912571 0.884990 1.895683 4.855139 -11.662884 -22.616344 1.870015 2.058288 -63.585695 -4.821559 22.674603 11.309357 -47.236924 9.890072 -7.984298 -22.918198 -8.450618 23.136652 -5.127020 -1.411877 50.998129 -7.700793 9.585608 -72.140727 67.843222 -58.862695 -20.712960 26.844756 -17.059982 
262.280334 -243.397583 92.485497 -150.420596 0.478261 85.491978 2.476767 5.991373 8.933581 -0.336240 2.883255 -1.296258 0.251895 13.902046 -15.082613 nan nan nan -0.381498 0.720536 6.125576 2.379379 -1.291484 3.993400 3.689816 -3.243229 -15.920743 nan nan nan -2.742851 1.397467 1.432416 4.706334 -5.463888 19.652363 1.081506 -2.426395 -8.583143 -3.941807 12.681697 0.703814 2.388807 4.592245 -11.625777 -22.485768 2.403737 1.194458 -62.966516 -4.135256 23.211108 8.704957 -49.614433 12.029754 -4.303763 -24.690160 -10.153359 23.070706 -4.607308 -1.264735 51.193519 -6.370395 9.959002 -62.636659 69.592274 -58.239966 -32.327322 30.991858 -26.795654 
262.243683 -243.324997 92.490234 -150.556879 0.476229 85.587139 2.426002 5.933829 8.947836 -0.274450 3.196741 -1.390741 0.303877 13.796894 -15.069202 nan nan nan -0.323977 0.861404 5.826223 2.299143 -1.418573 4.433556 3.664980 -2.963812 -16.077707 nan nan nan -2.611358 1.341594 1.380962 4.599307 -5.375846 19.752972 0.987176 -2.431284 -8.693677 -3.820282 13.015688 0.611940 2.344522 4.528798 -11.596205 -22.380926 2.637428 1.083807 -62.569299 -3.990314 23.291317 7.909733 -52.250597 12.449561 -4.745806 -26.370579 -10.463159 22.982287 -4.655792 -1.289779 51.506542 -6.085888 9.700013 -61.258003 69.225524 -57.522162 -31.127967 31.753077 -26.336864 
262.227325 -243.233734 92.495384 -150.824558 0.505020 85.743350 2.407738 5.894207 8.969905 -0.221554 3.584763 -1.557980 0.283466 13.754505 -15.090916 nan nan nan -0.286372 1.038858 5.492018 2.294535 -1.503074 4.815657 3.583875 -2.601152 -16.113316 nan nan nan -2.361395 1.282725 1.295199 4.438253 -5.246780 19.869572 0.857403 -2.384298 -8.841108 -3.854305 13.474056 0.828156 2.351482 4.494806 -11.954582 -22.410480 2.798839 1.121167 -62.111154 -3.891582 23.253575 7.236000 -55.214942 12.504792 -4.566276 -28.366251 -10.741390 22.857459 -4.631300 -1.258134 51.952407 -5.806278 9.340218 -59.948160 68.617720 -56.600160 -29.878488 32.459985 -26.028842 
